<svg width="18" height="23" viewBox="0 0 18 23" fill="none" xmlns="http://www.w3.org/2000/svg">
<path d="M15.994 3.42496L0.650163 18.7688C0.291078 19.1279 0.303504 19.7224 0.677917 20.0969C1.05233 20.4713 1.64691 20.4837 2.006 20.1246L17.3498 4.7808C17.7089 4.42171 17.6965 3.82713 17.3221 3.45272C16.9477 3.07831 16.3531 3.06588 15.994 3.42496Z" fill="black"/>
<path d="M17.3498 18.7689L2.006 3.42506C1.64691 3.06598 1.05233 3.07841 0.677918 3.45282C0.303504 3.82723 0.291078 4.42181 0.650163 4.7809L15.994 20.1247C16.3531 20.4838 16.9477 20.4714 17.3221 20.097C17.6965 19.7226 17.7089 19.128 17.3498 18.7689Z" fill="black"/>
</svg>
