<svg width="18" height="14" viewBox="0 0 18 14" fill="none" xmlns="http://www.w3.org/2000/svg">
<path d="M17.2969 6H0.703125C0.314789 6 0 6.4477 0 7C0 7.5523 0.314789 8 0.703125 8H17.2969C17.6852 8 18 7.5523 18 7C18 6.4477 17.6852 6 17.2969 6Z" fill="black"/>
<path d="M17.2969 0H0.703125C0.314789 0 0 0.4477 0 1C0 1.5523 0.314789 2 0.703125 2H17.2969C17.6852 2 18 1.5523 18 1C18 0.4477 17.6852 0 17.2969 0Z" fill="black"/>
<path d="M17.2969 12H0.703125C0.314789 12 0 12.4477 0 13C0 13.5523 0.314789 14 0.703125 14H17.2969C17.6852 14 18 13.5523 18 13C18 12.4477 17.6852 12 17.2969 12Z" fill="black"/>
</svg>
